<svg width="851" height="205" viewBox="0 0 851 205" fill="none" xmlns="http://www.w3.org/2000/svg">
<path fill-rule="evenodd" clip-rule="evenodd" d="M284.76 33.2798C286.417 33.2798 287.76 34.6229 287.76 36.2798L287.64 112.77L320.06 75.2298C320.63 74.5925 321.445 74.2287 322.3 74.2298H339.55C340.697 74.2613 341.725 74.9438 342.199 75.9881C342.673 77.0324 342.511 78.2557 341.78 79.1398L306.15 119.87L344.15 164.06C344.864 164.947 345.015 166.163 344.538 167.197C344.061 168.232 343.039 168.907 341.9 168.94H324.36C323.51 168.943 322.701 168.578 322.14 167.94L287.65 128.61L287.76 165.98C287.76 166.77 287.442 167.527 286.878 168.08C286.313 168.633 285.55 168.936 284.76 168.92H269.29C267.653 168.92 266.317 167.607 266.29 165.97V36.2798C266.29 34.6229 267.633 33.2798 269.29 33.2798H284.76ZM536.61 51.2298C538.208 51.2298 539.514 52.4787 539.605 54.0535L539.61 54.2298V74.2998H562.06C563.658 74.2998 564.964 75.5487 565.055 77.1235L565.06 77.2998V89.2998C565.06 90.8975 563.811 92.2034 562.236 92.2947L562.06 92.2998H539.61V135.9C539.61 146.74 544.52 151.74 555.06 151.74C557.139 151.732 559.206 151.429 561.2 150.84C562.095 150.585 563.058 150.761 563.806 151.315C564.501 151.829 564.937 152.616 565.01 153.471L565.02 153.67V166.06C565.008 167.261 564.28 168.339 563.17 168.8C558.455 170.55 553.448 171.382 548.42 171.25C529.768 171.25 518.585 159.802 518.363 140.633L518.36 140.05V92.3498H507.03C505.432 92.3498 504.126 91.1009 504.035 89.5261L504.03 89.3498V77.3498C504.03 75.7521 505.279 74.4461 506.854 74.3549L507.03 74.3498H518.34V54.2298C518.34 52.6507 519.561 51.3528 521.116 51.2377L521.29 51.2298H536.61ZM395.8 71.9998C409.103 71.9998 420.606 77.387 427.463 86.7901L427.75 87.1898L428.84 88.7298V77.3098C428.84 75.7307 430.061 74.4328 431.616 74.3177L431.79 74.3098H446.92C448.518 74.3098 449.824 75.5587 449.915 77.1335L449.92 77.3098V165.95C449.899 167.517 448.678 168.794 447.133 168.903L446.96 168.91H431.79C430.211 168.883 428.934 167.641 428.845 166.084L428.84 165.91V153.7L427.75 155.25C420.69 165.25 408.74 171.25 395.8 171.25C369.94 171.25 349.69 149.46 349.69 121.63C349.69 93.7998 369.94 71.9998 395.8 71.9998ZM828.233 86.7901C821.376 77.387 809.872 71.9998 796.52 71.9998C770.67 71.9998 750.42 93.7998 750.42 121.63C750.42 149.46 770.67 171.25 796.52 171.25C809.52 171.25 821.42 165.25 828.52 155.25L829.6 153.7V165.91L829.605 166.086C829.696 167.661 831.002 168.91 832.6 168.91H847.77L847.943 168.902C849.484 168.789 850.699 167.514 850.72 165.95V77.3098L850.715 77.1335C850.624 75.5587 849.318 74.3098 847.72 74.3098H832.6L832.424 74.3149C830.849 74.4061 829.6 75.7121 829.6 77.3098V88.7298L828.52 87.1898L828.233 86.7901ZM602.16 74.3098C603.758 74.3098 605.064 75.5587 605.155 77.1335L605.16 77.3098V127.1C605.16 142.41 613.13 151.54 626.48 151.54C640.221 151.54 649.18 141.014 649.357 124.667L649.36 124.17V77.3098C649.36 75.7121 650.609 74.4061 652.184 74.3149L652.36 74.3098H667.92C669.518 74.3098 670.824 75.5587 670.915 77.1335L670.92 77.3098V165.95C670.92 167.547 669.671 168.853 668.096 168.945L667.92 168.95H652.36C650.762 168.95 649.456 167.701 649.365 166.126L649.36 165.95V154.79L648.25 156.48C642.04 166.01 631.88 171.25 619.64 171.25C597.692 171.25 583.966 156.284 583.655 132.134L583.65 131.4V77.3098C583.65 75.7121 584.899 74.4061 586.474 74.3149L586.65 74.3098H602.16ZM745.325 75.194C745.24 73.6812 744.031 72.4567 742.5 72.3698L741.193 72.3727C728.983 72.5364 718.206 79.5585 713.63 90.3698L712.47 93.1098V77.3098L712.465 77.1335C712.374 75.5587 711.068 74.3098 709.47 74.3098H694.36L694.184 74.3149C692.609 74.4061 691.36 75.7121 691.36 77.3098V165.95L691.365 166.126C691.456 167.701 692.762 168.95 694.36 168.95H709.72L709.896 168.945C711.471 168.853 712.72 167.547 712.72 165.95V127.3L712.723 126.696C712.915 106.85 723.606 94.0598 740.07 94.0598L740.505 94.0603C741.082 94.0626 741.644 94.0738 742.18 94.1298C742.993 94.1706 743.787 93.8795 744.381 93.3232C744.975 92.767 745.318 91.9934 745.33 91.1798V75.3698L745.325 75.194ZM490.51 36.2698C490.51 34.635 489.185 33.3098 487.55 33.3098H472C470.365 33.3098 469.04 34.635 469.04 36.2698V165.95C469.04 167.585 470.365 168.91 472 168.91H487.55C489.185 168.91 490.51 167.585 490.51 165.95V36.2698ZM400.49 91.3398C384.04 91.3398 371.16 104.66 371.16 121.65C371.16 138.47 383.784 151.683 399.998 151.946L400.49 151.95V151.93C416.93 151.93 429.81 138.64 429.81 121.65C429.81 104.66 416.94 91.3398 400.49 91.3398ZM771.97 121.65C771.97 104.66 784.85 91.3398 801.29 91.3398C817.73 91.3398 830.62 104.66 830.62 121.65C830.62 138.64 817.74 151.93 801.29 151.93V151.95L800.798 151.946C784.594 151.683 771.97 138.47 771.97 121.65Z" fill="white"/>
<path fill-rule="evenodd" clip-rule="evenodd" d="M102.28 58.52C97.6401 58.52 93.8701 53.86 93.8701 49.22V9.3C93.8701 4.65 97.6401 0 102.28 0C106.92 0 110.7 4.65 110.7 9.3V49.17C110.7 53.81 106.93 58.52 102.28 58.52Z" fill="#FF3D23"/>
<path fill-rule="evenodd" clip-rule="evenodd" d="M71.3001 71.2999C68.0201 74.5899 62.0601 73.9599 58.7801 70.6699L30.5801 42.5199C27.3001 39.2299 26.6701 33.2799 29.9601 29.9899C33.2501 26.6999 39.2001 27.3299 42.4801 30.6199L70.6801 58.8099C73.9601 62.0599 74.5901 68.0099 71.3001 71.2999Z" fill="#FFD357"/>
<path fill-rule="evenodd" clip-rule="evenodd" d="M58.47 102.28C58.47 106.93 53.82 110.7 49.17 110.7H9.3C4.65 110.7 0 106.93 0 102.28C0 97.6301 4.65 93.8701 9.3 93.8701H49.17C53.82 93.8701 58.47 97.6301 58.47 102.28Z" fill="#B4DC00"/>
<path fill-rule="evenodd" clip-rule="evenodd" d="M71.2999 133.26C74.5899 136.55 73.9599 142.5 70.6799 145.79L42.4799 173.98C39.1999 177.27 33.2399 177.9 29.9599 174.61C26.6799 171.32 27.2999 165.37 30.5799 162.08L58.7799 133.89C62.0599 130.6 68.0199 129.98 71.2999 133.26Z" fill="#41BEFF"/>
<path fill-rule="evenodd" clip-rule="evenodd" d="M102.28 146.1C106.93 146.1 110.7 150.75 110.7 155.4V195.27C110.7 199.92 106.93 204.57 102.28 204.57C97.6301 204.57 93.8701 199.92 93.8701 195.27V155.4C93.8701 150.75 97.6401 146.1 102.28 146.1Z" fill="#006EFA"/>
<path fill-rule="evenodd" clip-rule="evenodd" d="M133.26 133.26C136.55 129.98 142.5 130.6 145.79 133.89L173.98 162.08C177.27 165.37 177.9 171.32 174.61 174.61C171.32 177.9 165.37 177.27 162.08 173.98L133.89 145.79C130.6 142.52 129.98 136.52 133.26 133.26Z" fill="#FFAA00"/>
<path fill-rule="evenodd" clip-rule="evenodd" d="M146.1 102.28C146.1 97.6301 150.75 93.8701 155.4 93.8701H195.27C199.92 93.8701 204.57 97.6301 204.57 102.28C204.57 106.93 199.92 110.7 195.27 110.7H155.36C150.75 110.7 146.1 106.93 146.1 102.28Z" fill="#00A078"/>
<path fill-rule="evenodd" clip-rule="evenodd" d="M133.26 71.3002C129.98 68.0102 130.6 62.0602 133.89 58.7702L162.08 30.5802C165.37 27.2902 171.32 26.6702 174.61 29.9502C177.9 33.2302 177.27 39.1902 173.98 42.4802L145.79 70.6702C142.5 73.9602 136.55 74.5902 133.26 71.3002Z" fill="#5BC686"/>
<circle cx="102.28" cy="102.28" r="13.53" fill="white"/>
</svg>
