<svg id="bafe539d-53ce-4f7a-ac0d-cddd8731cdd3" data-name="Layer 1" xmlns="http://www.w3.org/2000/svg" viewBox="0 0 861.45 221.63"><defs><style>.eb3cb974-aa4c-4828-9c79-4e2c869ad5fb{fill:#fff;}</style></defs><path class="eb3cb974-aa4c-4828-9c79-4e2c869ad5fb" d="M290.93,174.8H275.46a3,3,0,0,1-3-3V42.16a3,3,0,0,1,3-3h15.47a3,3,0,0,1,3,3l-.11,76.49L326.2,81.12a3,3,0,0,1,2.24-1h17.25A3,3,0,0,1,347.91,85l-35.63,40.73,38,44.19a3,3,0,0,1-2.24,4.88H330.49a3,3,0,0,1-2.23-1l-34.48-39.33.11,37.37A3,3,0,0,1,290.93,174.8Z"/><path class="eb3cb974-aa4c-4828-9c79-4e2c869ad5fb" d="M456.09,171.83V83.19a3,3,0,0,0-3-3H438a3,3,0,0,0-3,3V94.61l-1.09-1.54c-6.81-9.65-18.46-15.19-31.95-15.19-25.86,0-46.11,21.8-46.11,49.63s20.25,49.62,46.11,49.62c12.95,0,24.89-6,31.95-16l1.09-1.55v12.21a3,3,0,0,0,3,3h15.16A3,3,0,0,0,456.09,171.83Zm-49.43-14c-16.45,0-29.33-13.31-29.33-30.3S390.21,97.2,406.66,97.2,436,110.52,436,127.51,423.1,157.81,406.66,157.81Z"/><rect class="eb3cb974-aa4c-4828-9c79-4e2c869ad5fb" x="475.21" y="39.19" width="21.47" height="135.6" rx="2.96"/><path class="eb3cb974-aa4c-4828-9c79-4e2c869ad5fb" d="M554.59,177.13a39.42,39.42,0,0,0,14.75-2.45,3,3,0,0,0,1.85-2.74V159.55a3,3,0,0,0-3.82-2.83,21.91,21.91,0,0,1-6.13.9c-10.55,0-15.46-5-15.46-15.84V98.18h22.45a3,3,0,0,0,3-3v-12a3,3,0,0,0-3-3H545.78V60.11a3,3,0,0,0-2.95-3H527.47a3,3,0,0,0-3,3V80.23H513.2a3,3,0,0,0-3,3v12a3,3,0,0,0,3,3h11.31v47.7C524.51,165.45,535.75,177.13,554.59,177.13Z"/><path class="eb3cb974-aa4c-4828-9c79-4e2c869ad5fb" d="M746.24,99.94c.73,0,1.44,0,2.11.07a3,3,0,0,0,3.16-3V81.25a3,3,0,0,0-2.84-3c-.28,0-.57,0-.86,0-12.39,0-23.38,7.07-28,18L718.67,99V83.19a3,3,0,0,0-2.95-3H700.55a3,3,0,0,0-2.95,3v88.64a3,3,0,0,0,2.95,3h15.36a3,3,0,0,0,3-3V133.18C718.87,113,729.62,99.94,746.24,99.94Z"/><path class="eb3cb974-aa4c-4828-9c79-4e2c869ad5fb" d="M856.9,171.83V83.19a3,3,0,0,0-3-3H838.78a3,3,0,0,0-3,3V94.61l-1.09-1.54c-6.81-9.65-18.46-15.19-32-15.19-25.86,0-46.11,21.8-46.11,49.63s20.25,49.62,46.11,49.62c12.94,0,24.89-6,32-16l1.09-1.55v12.21a3,3,0,0,0,3,3h15.16A3,3,0,0,0,856.9,171.83Zm-49.43-14c-16.45,0-29.33-13.31-29.33-30.3S791,97.2,807.47,97.2s29.33,13.32,29.33,30.31S823.91,157.81,807.47,157.81Z"/><path class="eb3cb974-aa4c-4828-9c79-4e2c869ad5fb" d="M625.81,177.13c12.24,0,22.4-5.24,28.62-14.77l1.1-1.69v11.16a3,3,0,0,0,3,3H674a3,3,0,0,0,3-3V83.19a3,3,0,0,0-3-3H658.49a3,3,0,0,0-3,3v46.86c0,16.63-9,27.37-22.88,27.37-13.35,0-21.32-9.13-21.32-24.44V83.19a3,3,0,0,0-3-3H592.82a3,3,0,0,0-3,3v54.09C589.87,161.86,603.64,177.13,625.81,177.13Z"/><path class="eb3cb974-aa4c-4828-9c79-4e2c869ad5fb" d="M108.46,64.35c-4.65,0-8.42-4.66-8.42-9.3V15.18c0-4.65,3.77-9.3,8.42-9.3s8.41,4.65,8.41,9.3V55.05C116.87,59.69,113.1,64.35,108.46,64.35Z"/><path class="eb3cb974-aa4c-4828-9c79-4e2c869ad5fb" d="M77.47,77.18c-3.28,3.29-9.24,2.66-12.52-.63L36.75,48.36c-3.28-3.29-3.91-9.24-.62-12.53s9.24-2.66,12.52.63l28.2,28.19C80.13,67.94,80.76,73.89,77.47,77.18Z"/><path class="eb3cb974-aa4c-4828-9c79-4e2c869ad5fb" d="M64.64,108.16c0,4.65-4.65,8.42-9.3,8.42H15.47c-4.65,0-9.3-3.77-9.3-8.42s4.65-8.41,9.3-8.41H55.34C60,99.75,64.64,103.51,64.64,108.16Z"/><path class="eb3cb974-aa4c-4828-9c79-4e2c869ad5fb" d="M77.47,139.14c3.29,3.29,2.66,9.24-.62,12.53l-28.2,28.19c-3.28,3.29-9.24,3.92-12.52.63s-2.66-9.24.62-12.53L65,139.77C68.23,136.48,74.19,135.86,77.47,139.14Z"/><path class="eb3cb974-aa4c-4828-9c79-4e2c869ad5fb" d="M108.46,152c4.64,0,8.41,4.65,8.41,9.3v39.87c0,4.65-3.77,9.3-8.41,9.3s-8.42-4.65-8.42-9.3V161.28C100,156.63,103.81,152,108.46,152Z"/><path class="eb3cb974-aa4c-4828-9c79-4e2c869ad5fb" d="M139.44,139.14c3.28-3.28,9.24-2.66,12.52.63L180.16,168c3.28,3.29,3.91,9.24.62,12.53s-9.24,2.66-12.52-.63l-28.2-28.19C136.78,148.38,136.15,142.43,139.44,139.14Z"/><path class="eb3cb974-aa4c-4828-9c79-4e2c869ad5fb" d="M152.27,108.16c0-4.65,4.65-8.41,9.3-8.41h39.87c4.65,0,9.3,3.76,9.3,8.41s-4.65,8.42-9.3,8.42H161.57C156.92,116.58,152.27,112.81,152.27,108.16Z"/><path class="eb3cb974-aa4c-4828-9c79-4e2c869ad5fb" d="M139.44,77.18c-3.29-3.29-2.66-9.24.62-12.53l28.2-28.19c3.28-3.29,9.24-3.91,12.52-.63s2.66,9.24-.62,12.53L152,76.55C148.68,79.84,142.72,80.47,139.44,77.18Z"/><circle class="eb3cb974-aa4c-4828-9c79-4e2c869ad5fb" cx="108.46" cy="108.16" r="13.53" transform="translate(-44.72 108.37) rotate(-45)"/></svg>